<svg width="162" height="49" viewBox="0 0 162 49" fill="none" xmlns="http://www.w3.org/2000/svg">
<path d="M0 5C0 2.23858 2.23858 0 5 0H133.51C135.376 0 137.087 1.03917 137.947 2.69517L158.206 41.6952C159.934 45.0236 157.519 49 153.768 49H5C2.23857 49 0 46.7614 0 44V5Z" fill="url(#paint0_linear_144_33)"/>
<path d="M25.0795 33.5713C28.2235 33.5713 29.9755 31.4353 29.9755 28.9393C29.9755 23.7313 22.9195 23.7313 22.9195 20.4433C22.9195 19.2433 23.7115 18.4753 25.0795 18.4753C26.3755 18.4753 27.2155 19.2433 27.2635 20.8513H29.7355C29.6635 17.9953 27.9355 16.1473 25.0555 16.1473C22.2235 16.1473 20.4475 17.9713 20.4475 20.3953C20.4475 25.3873 27.4795 25.5793 27.4795 28.9153C27.4795 30.2593 26.6875 31.2193 25.0795 31.2193C23.5915 31.2193 22.6555 30.3793 22.6315 28.6513H20.1595C20.1835 31.7233 22.1035 33.5713 25.0795 33.5713ZM33.8414 30.9793V25.8433H39.1934V23.6113H33.8414V18.7393H39.6494V16.4593H31.4174V33.2593H39.8894V30.9793H33.8414ZM44.1839 30.9553V16.4593H41.7599V33.2593H49.7519V30.9553H44.1839ZM53.3076 30.9793V25.8433H58.6596V23.6113H53.3076V18.7393H59.1156V16.4593H50.8836V33.2593H59.3556V30.9793H53.3076ZM65.6181 33.5473C68.7141 33.5473 70.5141 31.7233 70.6821 28.4113H68.2821C68.1141 30.3313 67.2501 31.2433 65.6181 31.2433C64.1541 31.2433 63.2181 30.3073 63.2181 28.3153V21.4033C63.2181 19.3873 64.1541 18.4513 65.5701 18.4513C67.1781 18.4513 68.0421 19.3393 68.1861 21.3073H70.5861C70.4421 17.9713 68.6421 16.1473 65.5941 16.1473C62.6421 16.1473 60.7461 17.9953 60.7461 21.4033V28.3153C60.7461 31.6993 62.6661 33.5473 65.6181 33.5473ZM72.3186 16.4593V33.2593H74.7426V16.4593H72.3186ZM82.0203 33.5713C85.2363 33.5713 87.1563 31.4353 87.1563 27.9313V21.7873C87.1563 18.2833 85.2363 16.1473 82.0203 16.1473C78.8043 16.1473 76.8843 18.2833 76.8843 21.7873V27.9313C76.8843 31.4353 78.8043 33.5713 82.0203 33.5713ZM82.0203 31.1953C80.2683 31.1953 79.3803 30.0433 79.3803 27.9313V21.7873C79.3803 19.6753 80.2683 18.5233 82.0203 18.5233C83.7483 18.5233 84.6603 19.6753 84.6603 21.7873V27.9313C84.6603 30.0433 83.7483 31.1953 82.0203 31.1953ZM96.884 16.4593V23.0113C96.884 24.4993 97.028 27.0193 97.22 28.6753L97.148 28.7233C96.74 27.7153 96.116 26.1553 95.612 25.0273L91.748 16.4593H89.324V33.2593H91.724V26.7793C91.724 25.1953 91.604 22.6753 91.436 20.9953L91.508 20.9473C91.916 22.0273 92.612 23.7793 93.116 25.0273L96.86 33.2593H99.284V16.4593H96.884ZM108.948 33.2593H111.468L107.244 16.4593H104.628L100.404 33.2593H102.948L103.716 29.8753H108.156L108.948 33.2593ZM104.244 27.6193L105.276 23.1073C105.54 22.0033 105.78 20.3953 105.9 19.5073H105.972C106.092 20.3953 106.356 22.0033 106.596 23.1073L107.652 27.6193H104.244ZM119.931 33.2593H122.619L118.971 26.8273C120.891 26.1313 121.995 24.3313 121.995 21.7153C121.995 18.3793 120.171 16.4593 116.955 16.4593H112.611V33.2593H115.035V27.1633H116.547L119.931 33.2593ZM115.035 18.7633H116.931C118.611 18.7633 119.499 19.7713 119.499 21.7633C119.499 23.7553 118.611 24.8593 116.907 24.8593H115.035V18.7633Z" fill="white"/>
<defs>
<linearGradient id="paint0_linear_144_33" x1="-5.71644e-07" y1="24.8769" x2="136.547" y2="24.8769" gradientUnits="userSpaceOnUse">
<stop stop-color="#FF8A00"/>
<stop offset="1" stop-color="#FFC700"/>
</linearGradient>
</defs>
</svg>
