<svg width="162" height="49" viewBox="0 0 162 49" fill="none" xmlns="http://www.w3.org/2000/svg">
<path d="M0 5C0 2.23858 2.23858 0 5 0H133.51C135.376 0 137.087 1.03917 137.947 2.69517L158.206 41.6952C159.934 45.0236 157.519 49 153.768 49H5C2.23857 49 0 46.7614 0 44V5Z" fill="url(#paint0_linear_144_33)"/>
<path d="M40.0196 35.6493C43.9496 35.6493 46.1397 32.9793 46.1397 29.8593C46.1397 23.3493 37.3196 23.3493 37.3196 19.2393C37.3196 17.7393 38.3096 16.7793 40.0196 16.7793C41.6396 16.7793 42.6896 17.7393 42.7497 19.7493H45.8396C45.7496 16.1793 43.5896 13.8693 39.9896 13.8693C36.4496 13.8693 34.2296 16.1493 34.2296 19.1793C34.2296 25.4193 43.0197 25.6593 43.0197 29.8293C43.0197 31.5093 42.0296 32.7093 40.0196 32.7093C38.1596 32.7093 36.9896 31.6593 36.9596 29.4993H33.8696C33.8996 33.3393 36.2996 35.6493 40.0196 35.6493ZM53.492 14.2593H47.942V35.2593H50.972V27.8793H53.492C57.602 27.8793 59.942 25.4493 59.942 21.0393C59.942 16.7493 57.602 14.2593 53.492 14.2593ZM53.462 24.9993H50.972V17.1393H53.462C55.742 17.1393 56.852 18.4593 56.852 21.0393C56.852 23.7393 55.742 24.9993 53.462 24.9993ZM69.5722 35.2593H72.7222L67.4422 14.2593H64.1722L58.8922 35.2593H62.0722L63.0322 31.0293H68.5822L69.5722 35.2593ZM63.6922 28.2093L64.9822 22.5693C65.3122 21.1893 65.6122 19.1793 65.7622 18.0693H65.8522C66.0022 19.1793 66.3322 21.1893 66.6322 22.5693L67.9522 28.2093H63.6922ZM90.3702 14.2593L88.2102 25.7493C87.9402 27.2793 87.4302 30.0093 87.2502 31.3293H87.1302C86.9502 30.0093 86.5002 27.4293 86.1702 25.5993L84.0702 14.5893H80.8602L78.7602 25.5993C78.4302 27.4293 77.9802 30.0093 77.8002 31.3293H77.6802C77.5002 30.0093 76.9902 27.2793 76.7202 25.7493L74.5602 14.2593H71.4102L76.1202 35.2593H79.3602L81.4002 25.9893C81.8502 24.0093 82.2702 20.9493 82.4202 19.2393H82.5402C82.6602 20.9493 83.0802 24.0093 83.5302 25.9893L85.5702 35.2593H88.8102L93.5202 14.2593H90.3702ZM104.379 14.2593V22.4493C104.379 24.3093 104.559 27.4593 104.799 29.5293L104.709 29.5893C104.199 28.3293 103.419 26.3793 102.789 24.9693L97.9595 14.2593H94.9295V35.2593H97.9295V27.1593C97.9295 25.1793 97.7795 22.0293 97.5695 19.9293L97.6595 19.8693C98.1695 21.2193 99.0395 23.4093 99.6695 24.9693L104.349 35.2593H107.379V14.2593H104.379Z" fill="white"/>
<defs>
<linearGradient id="paint0_linear_144_33" x1="-5.71644e-07" y1="24.8769" x2="136.547" y2="24.8769" gradientUnits="userSpaceOnUse">
<stop stop-color="#FF8A00"/>
<stop offset="1" stop-color="#FFC700"/>
</linearGradient>
</defs>
</svg>
